# xmcd
#
# Track frame offsets:
#	150
#	13378
#	41147
#	67501
#	91834
#	140554
#	178405
#	203106
#	233649
#
# Disc length: 3624 seconds
#
# Revision: 0
# Processed by: cddbd v1.5.2PL0 Copyright (c) Steve Scherf et al.
# Submitted via: audiograbber 1.83.01
#
DISCID=780e2609
DTITLE=Grateful Dead - 93-12-17 Oakland Coliseum Arena, Oakland CA
DYEAR=1900
DGENRE=
TTITLE0=Tuning
TTITLE1=Here Comes Sunshine
TTITLE2=Walkin' Blues
TTITLE3=Jack-A-Roe
TTITLE4=Desolation Row
TTITLE5=Ramble On Rose
TTITLE6=Broken Arrow
TTITLE7=Lazy River Road
TTITLE8=The Music Never Stopped
EXTD=
EXTT0=
EXTT1=
EXTT2=
EXTT3=
EXTT4=
EXTT5=
EXTT6=
EXTT7=
EXTT8=
PLAYORDER=
